<svg id="Layer_1" data-name="Layer 1" xmlns="http://www.w3.org/2000/svg" viewBox="0 0 1920 882.66"><defs><style>.cls-1{fill:#efef25;}</style></defs><path class="cls-1" d="M375.37,325.41H1544.63A375.37,375.37,0,0,1,1920,700.78V882.66a0,0,0,0,1,0,0H0a0,0,0,0,1,0,0V700.78A375.37,375.37,0,0,1,375.37,325.41Z"/><polygon class="cls-1" points="960 0 997.96 76.91 1082.84 89.25 1021.42 149.11 1035.92 233.65 960 193.73 884.08 233.65 898.58 149.11 837.16 89.25 922.04 76.91 960 0"/><polygon class="cls-1" points="960 70.41 1026.56 215.71 1093.12 361.01 960 361.01 826.88 361.01 893.44 215.71 960 70.41"/></svg>